<svg xmlns="http://www.w3.org/2000/svg" width="18.078" height="16.786" viewBox="0 0 18.078 16.786">
  <path id="Path_1271" data-name="Path 1271" d="M81.9,111.646l-8.213-15.1c-.371-.688-.981-.716-1.352-.028l-8.213,15.146c-.371.686-.028,1.138.761,1.138H81.142C81.931,112.8,82.274,112.334,81.9,111.646Zm-8.889-.492a.934.934,0,1,1,.946-.934A.941.941,0,0,1,73.014,111.153Zm.795-4.015c-.107.64-.464,1.164-.795,1.164s-.686-.525-.795-1.164l-.8-4.864a1.066,1.066,0,0,1,1-1.275h1.2a1.063,1.063,0,0,1,1,1.275Z" transform="translate(-63.975 -96.014)" fill="#d81e06"/>
</svg>
