<svg width="18" height="18" viewBox="0 0 18 18" fill="none" xmlns="http://www.w3.org/2000/svg">
<path d="M8.99984 4.83332C6.69984 4.83332 4.83317 6.69999 4.83317 8.99999C4.83317 11.3 6.69984 13.1667 8.99984 13.1667C11.2998 13.1667 13.1665 11.3 13.1665 8.99999C13.1665 6.69999 11.2998 4.83332 8.99984 4.83332ZM8.99984 0.666656C4.39984 0.666656 0.666504 4.39999 0.666504 8.99999C0.666504 13.6 4.39984 17.3333 8.99984 17.3333C13.5998 17.3333 17.3332 13.6 17.3332 8.99999C17.3332 4.39999 13.5998 0.666656 8.99984 0.666656ZM8.99984 15.6667C5.3165 15.6667 2.33317 12.6833 2.33317 8.99999C2.33317 5.31666 5.3165 2.33332 8.99984 2.33332C12.6832 2.33332 15.6665 5.31666 15.6665 8.99999C15.6665 12.6833 12.6832 15.6667 8.99984 15.6667Z" fill="#A126F8"/>
</svg>
