<?xml version="1.0" encoding="utf-8"?>
<!-- Generator: Adobe Illustrator 23.0.1, SVG Export Plug-In . SVG Version: 6.00 Build 0)  -->
<svg version="1.1" id="Layer_1" xmlns="http://www.w3.org/2000/svg" xmlns:xlink="http://www.w3.org/1999/xlink" x="0px" y="0px"
	 viewBox="0 0 19.5 24" style="enable-background:new 0 0 19.5 24;" xml:space="preserve">
<style type="text/css">
	.st0{display:none;fill:#0071BC;}
	.st1{fill:#FF2215;}
	.st2{fill:#FFFFFF;}
	.st3{fill:#2A5699;}
	.st4{opacity:0.8;fill:#828282;}
	.st5{fill:#F34E19;}
	.st6{fill:#F4BA64;}
	.st7{fill:#F7931E;}
	.st8{fill:#039E55;}
	.st9{fill:#1AA5DD;}
	.st10{fill:#525252;}
	.st11{fill:#97BAFF;}
	.st12{fill:#EFC748;}
</style>
<g id="WORD_1_">
	<path class="st3" d="M0,21.8c0-6.5,0-13,0-19.5c0,0,0-0.1,0-0.1c0.1-1,0.8-1.8,1.8-2.1C2,0,2.1,0,2.2,0C6.1,0,10,0,13.9,0
		c0,0,0.1,0,0.1,0c0.5,0.1,1,0.3,1.4,0.7c1.2,1.1,2.3,2.3,3.5,3.4c0.3,0.3,0.5,0.7,0.6,1.1c0,0.1,0.1,0.2,0.1,0.4
		c0,5.4,0,10.8,0,16.2c0,0,0,0.1,0,0.1c-0.1,1-0.8,1.8-1.8,2c-0.1,0-0.3,0.1-0.4,0.1c-5,0-10.1,0-15.1,0c0,0-0.1,0-0.1,0
		c-1-0.1-1.8-0.9-2-1.8C0,22,0,21.9,0,21.8z M0.8,12c0,3.2,0,6.4,0,9.5c0,0.1,0,0.3,0,0.4c0.2,0.7,0.8,1.2,1.6,1.2
		c4.9,0,9.7,0,14.6,0c0,0,0.1,0,0.1,0c0.8,0,1.5-0.7,1.5-1.6c0-5.3,0-10.5,0-15.8c0-0.5-0.2-0.8-0.5-1.2c-0.4-0.4-0.9-0.9-1.3-1.3
		c-0.7-0.7-1.4-1.4-2.2-2.1c-0.3-0.3-0.7-0.5-1.1-0.5c-3.7,0-7.5,0-11.2,0c-0.9,0-1.6,0.7-1.6,1.6C0.8,5.6,0.8,8.8,0.8,12z"/>
	<path class="st4" d="M4.2,16h11.1c0.2,0,0.4-0.2,0.4-0.4s-0.2-0.4-0.4-0.4H4.2c-0.2,0-0.4,0.2-0.4,0.4S3.9,16,4.2,16L4.2,16z
		 M4.2,18.3h11.1c0.2,0,0.4-0.2,0.4-0.4c0-0.2-0.2-0.4-0.4-0.4H4.2c-0.2,0-0.4,0.2-0.4,0.4C3.7,18.1,3.9,18.3,4.2,18.3L4.2,18.3z
		 M4.2,20.6h11.1c0.2,0,0.4-0.2,0.4-0.4c0-0.2-0.2-0.4-0.4-0.4H4.2c-0.2,0-0.4,0.2-0.4,0.4C3.7,20.4,3.9,20.6,4.2,20.6L4.2,20.6z
		 M2.8,22.7"/>
	<g>
		<path class="st3" d="M8.3,12H6.9L5.3,5.2h1.4L8.3,12z M8.3,12"/>
		<path class="st3" d="M7,12h1.4l1.6-6.8H8.6L7,12z M7,12"/>
		<path class="st3" d="M12.5,12h-1.4L9.5,5.2h1.4L12.5,12z M12.5,12"/>
		<path class="st3" d="M11.2,12h1.4l1.6-6.8h-1.4L11.2,12z M11.2,12"/>
	</g>
</g>
</svg>
