<svg id="f5fad3e2-60ed-45d7-b3b6-05ac13f9bb9c" data-name="Layer 1" xmlns="http://www.w3.org/2000/svg" viewBox="0 0 19.53 24"><defs><style>.b4fd69e9-17f1-49e7-8e2f-2afc41969d81{fill:#1aa5dd;}</style></defs><title>JPG_icon</title><g id="bb72a14b-68df-420f-a33f-4d16d017512d" data-name="POWER POINT"><path class="b4fd69e9-17f1-49e7-8e2f-2afc41969d81" d="M0,21.76V2.24l0-.1A2.37,2.37,0,0,1,1.83.08L2.21,0H13.86L14,0a2.34,2.34,0,0,1,1.38.65l3.49,3.43a2.27,2.27,0,0,1,.63,1.13c0,.12.05.23.08.35v16.2s0,.05,0,.08a2.38,2.38,0,0,1-1.77,2l-.42.09H2.19L2.1,24a2.38,2.38,0,0,1-2-1.82C.05,22,0,21.89,0,21.76ZM.81,12v9.55a1.84,1.84,0,0,0,0,.41,1.64,1.64,0,0,0,1.63,1.24h14.7a1.62,1.62,0,0,0,1.54-1.59V5.83a1.59,1.59,0,0,0-.48-1.16L16.94,3.4,14.77,1.27A1.58,1.58,0,0,0,13.64.81H2.44A1.61,1.61,0,0,0,.81,2.45Z"/><path class="b4fd69e9-17f1-49e7-8e2f-2afc41969d81" d="M.93,18.64a.59.59,0,0,1-.4-.15.58.58,0,0,1,0-.82L5,12.94A1.39,1.39,0,0,1,7.07,13l3.66,4.51a.58.58,0,0,1-.89.73L6.36,14a.5.5,0,0,0-.75,0L1.34,18.46a.55.55,0,0,1-.41.18Z"/><path class="b4fd69e9-17f1-49e7-8e2f-2afc41969d81" d="M18.89,18.64a.6.6,0,0,1-.44-.2l-6.06-7a.44.44,0,0,0-.64,0L9.48,13.93a.56.56,0,0,1-.83,0,.59.59,0,0,1,0-.81l2.15-2.37a1.72,1.72,0,0,1,2.57,0l5.95,6.88a.59.59,0,0,1,0,.81.58.58,0,0,1-.39.15Z"/><path class="b4fd69e9-17f1-49e7-8e2f-2afc41969d81" d="M6.47,10.17A2.95,2.95,0,1,1,9.41,7.23a2.95,2.95,0,0,1-2.94,2.94Z"/></g></svg>