<?xml version="1.0" encoding="utf-8"?>
<!-- Generator: Adobe Illustrator 23.0.1, SVG Export Plug-In . SVG Version: 6.00 Build 0)  -->
<svg version="1.1" id="Layer_1" xmlns="http://www.w3.org/2000/svg" xmlns:xlink="http://www.w3.org/1999/xlink" x="0px" y="0px"
	 viewBox="0 0 19.5 24" style="enable-background:new 0 0 19.5 24;" xml:space="preserve">
<style type="text/css">
	.st0{display:none;fill:#0071BC;}
	.st1{fill:#FF2215;}
	.st2{fill:#FFFFFF;}
	.st3{fill:#2A5699;}
	.st4{opacity:0.8;fill:#828282;}
	.st5{fill:#F34E19;}
	.st6{fill:#F4BA64;}
	.st7{fill:#F7931E;}
	.st8{fill:#039E55;}
	.st9{fill:#1AA5DD;}
	.st10{fill:#525252;}
	.st11{fill:#97BAFF;}
	.st12{fill:#EFC748;}
	.st13{font-family:'Graphik-Medium';}
	.st14{font-size:5px;}
</style>
<g id="OTD_2_">
	<path d="M0,21.8c0-6.5,0-13,0-19.5c0,0,0-0.1,0-0.1c0.1-1,0.8-1.8,1.8-2.1C2,0,2.1,0,2.2,0C6.1,0,10,0,13.9,0c0,0,0.1,0,0.1,0
		c0.5,0.1,1,0.3,1.4,0.7c1.2,1.1,2.3,2.3,3.5,3.4c0.3,0.3,0.5,0.7,0.6,1.1c0,0.1,0.1,0.2,0.1,0.4c0,5.4,0,10.8,0,16.2
		c0,0,0,0.1,0,0.1c-0.1,1-0.8,1.8-1.8,2c-0.1,0-0.3,0.1-0.4,0.1c-5,0-10.1,0-15.1,0c0,0-0.1,0-0.1,0c-1-0.1-1.8-0.9-2-1.8
		C0,22,0,21.9,0,21.8z M0.8,12c0,3.2,0,6.4,0,9.5c0,0.1,0,0.3,0,0.4c0.2,0.7,0.8,1.2,1.6,1.2c4.9,0,9.7,0,14.6,0c0,0,0.1,0,0.1,0
		c0.8,0,1.5-0.7,1.5-1.6c0-5.3,0-10.5,0-15.8c0-0.5-0.2-0.8-0.5-1.2c-0.4-0.4-0.9-0.9-1.3-1.3c-0.7-0.7-1.4-1.4-2.2-2.1
		c-0.3-0.3-0.7-0.5-1.1-0.5c-3.7,0-7.5,0-11.2,0c-0.9,0-1.6,0.7-1.6,1.6C0.8,5.6,0.8,8.8,0.8,12z"/>
	<text transform="matrix(1 0 0 1 4.4549 20.5236)" class="st13 st14">OTD</text>
	<path d="M13.8,5.8c-1.3-0.6-3-0.7-4.2,0.1c1.5-0.1,3.1,0.1,4.2,1.2c1-1.2,2.7-1.4,4.2-1.3C16.7,5.1,15.1,5.2,13.8,5.8L13.8,5.8z
		 M13.2,8.7c-1.5,0-2.9,0.5-4.1,1.3c-2.3-1-5.2-0.8-7.2,0.8c0.6,0,1.1-0.2,1.7-0.2c2.1-0.2,4.3,0.3,5.8,1.7c0.6-0.9,1.5-1.7,2.6-2.2
		c1.4-0.7,2.9-0.7,4.4-0.7C15.4,8.8,14.3,8.7,13.2,8.7L13.2,8.7z"/>
</g>
</svg>
