<svg id="ea9f7173-2495-4e8f-8690-496b329ecaa7" data-name="Layer 1" xmlns="http://www.w3.org/2000/svg" viewBox="0 0 19.53 24"><defs><style>.bfc0e771-fc2d-4dad-92e7-bb8fa32f4edf{fill:#ff2215;}.f4afc2e3-e5aa-403e-9c5f-df6db0abeaca{fill:#fff;}</style></defs><title>PDF</title><g id="ba1b1a5a-f922-4563-8508-804dcd6c6305" data-name="PDF icon"><path class="bfc0e771-fc2d-4dad-92e7-bb8fa32f4edf" d="M0,21.76V2.24l0-.1A2.37,2.37,0,0,1,1.83.08L2.21,0H13.86L14,0a2.34,2.34,0,0,1,1.38.65l3.49,3.43a2.27,2.27,0,0,1,.63,1.13c0,.12.05.23.08.35v16.2s0,.05,0,.08a2.38,2.38,0,0,1-1.77,2l-.42.09H2.19L2.1,24a2.38,2.38,0,0,1-2-1.82C.05,22,0,21.89,0,21.76ZM.81,12v9.55a1.84,1.84,0,0,0,0,.41,1.64,1.64,0,0,0,1.63,1.24h14.7a1.62,1.62,0,0,0,1.54-1.59V5.83a1.59,1.59,0,0,0-.48-1.16L16.94,3.4,14.77,1.27A1.58,1.58,0,0,0,13.64.81H2.44A1.61,1.61,0,0,0,.81,2.45Z"/><path class="f4afc2e3-e5aa-403e-9c5f-df6db0abeaca" d="M.81,12V2.45A1.61,1.61,0,0,1,2.44.81h11.2a1.58,1.58,0,0,1,1.13.46L16.94,3.4l1.3,1.27a1.59,1.59,0,0,1,.48,1.16V21.6a1.62,1.62,0,0,1-1.54,1.59H2.48A1.64,1.64,0,0,1,.85,22a1.84,1.84,0,0,1,0-.41Zm9.33-5.66c0-.14,0-.28,0-.43a1.47,1.47,0,0,0-.27-.78.74.74,0,0,0-.74-.3.64.64,0,0,0-.51.53,2.66,2.66,0,0,0,0,1.05,6.85,6.85,0,0,0,.5,1.71.25.25,0,0,1,0,.17,21.61,21.61,0,0,1-1.45,3.44.42.42,0,0,1-.2.17,8,8,0,0,0-2,1.1,2.56,2.56,0,0,0-.55.59.58.58,0,0,0,.35.93,1.12,1.12,0,0,0,.86-.08A2.91,2.91,0,0,0,7,13.72a9.72,9.72,0,0,0,1.32-1.87.33.33,0,0,1,.13-.13A19.27,19.27,0,0,1,11,11a.34.34,0,0,1,.32.09,4.35,4.35,0,0,0,1.95,1,1.86,1.86,0,0,0,1.07,0,.6.6,0,0,0,.2-1,1.25,1.25,0,0,0-.35-.21,3.08,3.08,0,0,0-1.12-.2,9.06,9.06,0,0,0-1.72.13.24.24,0,0,1-.21-.08A10,10,0,0,1,9.82,9a.72.72,0,0,1-.08-.67A7.63,7.63,0,0,0,10.14,6.33ZM8.75,20.54c.33,0,.65,0,1,0a1.48,1.48,0,0,0,1.36-1,2.42,2.42,0,0,0,.07-1.41A1.36,1.36,0,0,0,9.93,17a8,8,0,0,0-.85,0l-.33,0ZM6.06,17v3.51h.56V19.29c.22,0,.42,0,.62-.05a1,1,0,0,0,.91-.82,1.07,1.07,0,0,0-.74-1.35A5.55,5.55,0,0,0,6.06,17Zm5.8,0v3.51h.57V19.06h1.16v-.51H12.43v-1h1.16c.11,0,.17,0,.14-.15a2.48,2.48,0,0,1,0-.27c0-.08,0-.11-.12-.11H11.86Z"/><path class="bfc0e771-fc2d-4dad-92e7-bb8fa32f4edf" d="M10.14,6.33a7.63,7.63,0,0,1-.4,2A.72.72,0,0,0,9.82,9a10,10,0,0,0,1.34,1.7.24.24,0,0,0,.21.08,9.06,9.06,0,0,1,1.72-.13,3.08,3.08,0,0,1,1.12.2,1.25,1.25,0,0,1,.35.21.6.6,0,0,1-.2,1,1.86,1.86,0,0,1-1.07,0,4.35,4.35,0,0,1-1.95-1A.34.34,0,0,0,11,11a19.27,19.27,0,0,0-2.61.69.33.33,0,0,0-.13.13A9.72,9.72,0,0,1,7,13.72a2.91,2.91,0,0,1-.89.71,1.12,1.12,0,0,1-.86.08.58.58,0,0,1-.35-.93A2.56,2.56,0,0,1,5.41,13a8,8,0,0,1,2-1.1.42.42,0,0,0,.2-.17A21.61,21.61,0,0,0,9.09,8.28a.25.25,0,0,0,0-.17,6.85,6.85,0,0,1-.5-1.71,2.66,2.66,0,0,1,0-1.05.64.64,0,0,1,.51-.53.74.74,0,0,1,.74.3,1.47,1.47,0,0,1,.27.78C10.15,6.05,10.14,6.19,10.14,6.33Zm-1.6,5.13L11,10.82A9.16,9.16,0,0,1,9.58,9Zm-1.14.68,0,0-.56.26a6,6,0,0,0-1.47.91,2,2,0,0,0-.36.46.35.35,0,0,0,0,.45.36.36,0,0,0,.43.1,1.61,1.61,0,0,0,.43-.23A7.21,7.21,0,0,0,7.4,12.14ZM11.47,11v0a4.13,4.13,0,0,0,1.87,1,.84.84,0,0,0,.54-.08.48.48,0,0,0,.27-.45.46.46,0,0,0-.26-.43,1.42,1.42,0,0,0-.35-.11,5.09,5.09,0,0,0-1.35,0ZM9.18,7.89h0A8,8,0,0,0,9.66,5.8a2,2,0,0,0-.08-.54A.33.33,0,0,0,9.25,5a.37.37,0,0,0-.37.21,1.21,1.21,0,0,0-.11.32A3.39,3.39,0,0,0,8.88,7C9,7.28,9.08,7.58,9.18,7.89Z"/><path d="M8.75,20.54V17l.33,0a8,8,0,0,1,.85,0,1.36,1.36,0,0,1,1.22,1.08,2.42,2.42,0,0,1-.07,1.41,1.48,1.48,0,0,1-1.36,1C9.4,20.56,9.08,20.54,8.75,20.54Zm.57-1.77v1.14c0,.06,0,.11.08.12a1,1,0,0,0,1.1-.6,1.86,1.86,0,0,0,.06-1.23.89.89,0,0,0-.83-.68H9.44c-.09,0-.12,0-.12.12C9.33,18,9.32,18.39,9.32,18.77Z"/><path d="M6.06,17a5.55,5.55,0,0,1,1.35.05,1.07,1.07,0,0,1,.74,1.35,1,1,0,0,1-.91.82c-.2,0-.4,0-.62.05v1.24H6.06Zm.56,1.74a1.45,1.45,0,0,0,.66-.07.57.57,0,0,0,.32-.61.51.51,0,0,0-.38-.52,3.08,3.08,0,0,0-.53,0s-.07.06-.07.1,0,.3,0,.45Z"/><path d="M11.86,17h1.72c.08,0,.12,0,.12.11a2.48,2.48,0,0,0,0,.27c0,.13,0,.15-.14.15H12.43v1h1.16v.51H12.43v1.47h-.57Z"/></g></svg>