<?xml version="1.0" encoding="utf-8"?>
<!-- Generator: Adobe Illustrator 23.0.1, SVG Export Plug-In . SVG Version: 6.00 Build 0)  -->
<svg version="1.1" id="Layer_1" xmlns="http://www.w3.org/2000/svg" xmlns:xlink="http://www.w3.org/1999/xlink" x="0px" y="0px"
	 viewBox="0 0 19.5 24" style="enable-background:new 0 0 19.5 24;" xml:space="preserve">
<style type="text/css">
	.st0{display:none;fill:#0071BC;}
	.st1{fill:#FF2215;}
	.st2{fill:#FFFFFF;}
	.st3{fill:#2A5699;}
	.st4{opacity:0.8;fill:#828282;}
	.st5{fill:#F34E19;}
	.st6{fill:#F4BA64;}
	.st7{fill:#F7931E;}
	.st8{fill:#039E55;}
	.st9{fill:#1AA5DD;}
	.st10{fill:#525252;}
	.st11{fill:#97BAFF;}
	.st12{fill:#EFC748;}
	.st13{display:none;}
	.st14{display:inline;fill:#2A5699;}
	.st15{display:inline;opacity:0.8;fill:#828282;}
	.st16{display:inline;}
	.st17{display:inline;fill:#039E55;}
</style>
<g id="WORD_1_" class="st13">
	<path class="st14" d="M0,21.8c0-6.5,0-13,0-19.5c0,0,0-0.1,0-0.1c0.1-1,0.8-1.8,1.8-2.1C2,0,2.1,0,2.2,0C6.1,0,10,0,13.9,0
		c0,0,0.1,0,0.1,0c0.5,0.1,1,0.3,1.4,0.7c1.2,1.1,2.3,2.3,3.5,3.4c0.3,0.3,0.5,0.7,0.6,1.1c0,0.1,0.1,0.2,0.1,0.4
		c0,5.4,0,10.8,0,16.2c0,0,0,0.1,0,0.1c-0.1,1-0.8,1.8-1.8,2c-0.1,0-0.3,0.1-0.4,0.1c-5,0-10.1,0-15.1,0c0,0-0.1,0-0.1,0
		c-1-0.1-1.8-0.9-2-1.8C0,22,0,21.9,0,21.8z M0.8,12c0,3.2,0,6.4,0,9.5c0,0.1,0,0.3,0,0.4c0.2,0.7,0.8,1.2,1.6,1.2
		c4.9,0,9.7,0,14.6,0c0,0,0.1,0,0.1,0c0.8,0,1.5-0.7,1.5-1.6c0-5.3,0-10.5,0-15.8c0-0.5-0.2-0.8-0.5-1.2c-0.4-0.4-0.9-0.9-1.3-1.3
		c-0.7-0.7-1.4-1.4-2.2-2.1c-0.3-0.3-0.7-0.5-1.1-0.5c-3.7,0-7.5,0-11.2,0c-0.9,0-1.6,0.7-1.6,1.6C0.8,5.6,0.8,8.8,0.8,12z"/>
	<path class="st15" d="M4.2,16h11.1c0.2,0,0.4-0.2,0.4-0.4s-0.2-0.4-0.4-0.4H4.2c-0.2,0-0.4,0.2-0.4,0.4S3.9,16,4.2,16L4.2,16z
		 M4.2,18.3h11.1c0.2,0,0.4-0.2,0.4-0.4c0-0.2-0.2-0.4-0.4-0.4H4.2c-0.2,0-0.4,0.2-0.4,0.4C3.7,18.1,3.9,18.3,4.2,18.3L4.2,18.3z
		 M4.2,20.6h11.1c0.2,0,0.4-0.2,0.4-0.4c0-0.2-0.2-0.4-0.4-0.4H4.2c-0.2,0-0.4,0.2-0.4,0.4C3.7,20.4,3.9,20.6,4.2,20.6L4.2,20.6z
		 M2.8,22.7"/>
	<g class="st16">
		<path class="st3" d="M8.3,12H6.9L5.3,5.2h1.4L8.3,12z M8.3,12"/>
		<path class="st3" d="M7,12h1.4l1.6-6.8H8.6L7,12z M7,12"/>
		<path class="st3" d="M12.5,12h-1.4L9.5,5.2h1.4L12.5,12z M12.5,12"/>
		<path class="st3" d="M11.2,12h1.4l1.6-6.8h-1.4L11.2,12z M11.2,12"/>
	</g>
</g>
<g class="st13">
	<path class="st17" d="M0,21.8c0-6.5,0-13,0-19.5c0,0,0-0.1,0-0.1c0.1-1,0.8-1.8,1.8-2.1C2,0,2.1,0,2.2,0C6.1,0,10,0,13.9,0
		c0,0,0.1,0,0.1,0c0.5,0.1,1,0.3,1.4,0.7c1.2,1.1,2.3,2.3,3.5,3.4c0.3,0.3,0.5,0.7,0.6,1.1c0,0.1,0.1,0.2,0.1,0.4
		c0,5.4,0,10.8,0,16.2c0,0,0,0.1,0,0.1c-0.1,1-0.8,1.8-1.8,2c-0.1,0-0.3,0.1-0.4,0.1c-5,0-10.1,0-15.1,0c0,0-0.1,0-0.1,0
		c-1-0.1-1.8-0.9-2-1.8C0,22,0,21.9,0,21.8z M0.8,12c0,3.2,0,6.4,0,9.5c0,0.1,0,0.3,0,0.4c0.2,0.7,0.8,1.2,1.6,1.2
		c4.9,0,9.7,0,14.6,0c0,0,0.1,0,0.1,0c0.8,0,1.5-0.7,1.5-1.6c0-5.3,0-10.5,0-15.8c0-0.5-0.2-0.8-0.5-1.2c-0.4-0.4-0.9-0.9-1.3-1.3
		c-0.7-0.7-1.4-1.4-2.2-2.1c-0.3-0.3-0.7-0.5-1.1-0.5c-3.7,0-7.5,0-11.2,0c-0.9,0-1.6,0.7-1.6,1.6C0.8,5.6,0.8,8.8,0.8,12z"/>
	<g class="st16">
		<path class="st4" d="M4.4,16.1h4.6c0.1,0,0.2-0.2,0.2-0.4s-0.1-0.4-0.2-0.4H4.4c-0.1,0-0.2,0.2-0.2,0.4S4.3,16.1,4.4,16.1
			L4.4,16.1z"/>
		<path class="st4" d="M10.4,16.1h4.6c0.1,0,0.2-0.2,0.2-0.4s-0.1-0.4-0.2-0.4h-4.6c-0.1,0-0.2,0.2-0.2,0.4S10.3,16.1,10.4,16.1
			L10.4,16.1z"/>
		<path class="st4" d="M4.4,18.2h4.6c0.1,0,0.2-0.2,0.2-0.4c0-0.2-0.1-0.4-0.2-0.4H4.4c-0.1,0-0.2,0.2-0.2,0.4
			C4.3,18,4.3,18.2,4.4,18.2L4.4,18.2z"/>
		<path class="st4" d="M10.4,18.2h4.6c0.1,0,0.2-0.2,0.2-0.4c0-0.2-0.1-0.4-0.2-0.4h-4.6c-0.1,0-0.2,0.2-0.2,0.4
			C10.3,18,10.3,18.2,10.4,18.2L10.4,18.2z"/>
		<path class="st4" d="M4.4,20.1h4.6c0.1,0,0.2-0.2,0.2-0.4c0-0.2-0.1-0.4-0.2-0.4H4.4c-0.1,0-0.2,0.2-0.2,0.4
			C4.3,19.9,4.3,20.1,4.4,20.1L4.4,20.1z"/>
		<path class="st4" d="M10.4,20.1h4.6c0.1,0,0.2-0.2,0.2-0.4c0-0.2-0.1-0.4-0.2-0.4h-4.6c-0.1,0-0.2,0.2-0.2,0.4
			C10.3,19.9,10.3,20.1,10.4,20.1L10.4,20.1z"/>
	</g>
	<path class="st17" d="M14.2,5.7h-2.9l-1.5,2l-1.5-2h-3l2.7,3L5,12h3l1.7-2l1.7,2h3l-3-3.3L14.2,5.7z"/>
</g>
<g id="POWER_POINT_2_">
	<path class="st5" d="M0,21.8c0-6.5,0-13,0-19.5c0,0,0-0.1,0-0.1c0.1-1,0.8-1.8,1.8-2.1C2,0,2.1,0,2.2,0C6.1,0,10,0,13.9,0
		c0,0,0.1,0,0.1,0c0.5,0.1,1,0.3,1.4,0.7c1.2,1.1,2.3,2.3,3.5,3.4c0.3,0.3,0.5,0.7,0.6,1.1c0,0.1,0.1,0.2,0.1,0.4
		c0,5.4,0,10.8,0,16.2c0,0,0,0.1,0,0.1c-0.1,1-0.8,1.8-1.8,2c-0.1,0-0.3,0.1-0.4,0.1c-5,0-10.1,0-15.1,0c0,0-0.1,0-0.1,0
		c-1-0.1-1.8-0.9-2-1.8C0,22,0,21.9,0,21.8z M0.8,12c0,3.2,0,6.4,0,9.5c0,0.1,0,0.3,0,0.4c0.2,0.7,0.8,1.2,1.6,1.2
		c4.9,0,9.7,0,14.6,0c0,0,0.1,0,0.1,0c0.8,0,1.5-0.7,1.5-1.6c0-5.3,0-10.5,0-15.8c0-0.5-0.2-0.8-0.5-1.2c-0.4-0.4-0.9-0.9-1.3-1.3
		c-0.7-0.7-1.4-1.4-2.2-2.1c-0.3-0.3-0.7-0.5-1.1-0.5c-3.7,0-7.5,0-11.2,0c-0.9,0-1.6,0.7-1.6,1.6C0.8,5.6,0.8,8.8,0.8,12z"/>
	<g>
		<path class="st6" d="M13.6,15.1c-1.5,0-2.8,1.2-2.8,2.8c0,1.5,1.2,2.8,2.8,2.8c1.5,0,2.8-1.2,2.8-2.8h-2.8V15.1z M13.6,15.1"/>
		<path class="st7" d="M14,14.7v2.8h2.8C16.8,15.9,15.6,14.7,14,14.7L14,14.7z M14,14.7"/>
	</g>
	<g>
		<path class="st4" d="M4.5,16.1h4.9c0.1,0,0.2-0.2,0.2-0.4s-0.1-0.4-0.2-0.4H4.5c-0.1,0-0.2,0.2-0.2,0.4S4.4,16.1,4.5,16.1
			L4.5,16.1z"/>
		<path class="st4" d="M4.4,18.2h4.5c0.1,0,0.2-0.2,0.2-0.4c0-0.2-0.1-0.4-0.2-0.4H4.4c-0.1,0-0.2,0.2-0.2,0.4
			C4.3,18,4.3,18.2,4.4,18.2L4.4,18.2z"/>
		<path class="st4" d="M4.5,20.1h5.2c0.1,0,0.2-0.2,0.2-0.4c0-0.2-0.1-0.4-0.2-0.4H4.5c-0.1,0-0.2,0.2-0.2,0.4
			C4.3,19.9,4.4,20.1,4.5,20.1L4.5,20.1z"/>
	</g>
	<path class="st5" d="M6.4,12.8V4.1h2.8c1.1,0,1.8,0,2.1,0.1c0.5,0.1,0.9,0.4,1.3,0.9c0.3,0.4,0.5,1,0.5,1.7c0,0.5-0.1,1-0.3,1.3
		c-0.2,0.4-0.4,0.6-0.7,0.9c-0.3,0.2-0.6,0.3-0.9,0.4c-0.4,0.1-1,0.1-1.8,0.1H8.2v3.3L6.4,12.8L6.4,12.8z M8.2,5.6v2.5h1
		c0.7,0,1.2,0,1.4-0.1c0.2-0.1,0.4-0.2,0.5-0.4c0.1-0.2,0.2-0.4,0.2-0.7c0-0.3-0.1-0.6-0.3-0.8c-0.2-0.2-0.4-0.3-0.7-0.4
		c-0.2,0-0.6-0.1-1.3-0.1L8.2,5.6L8.2,5.6z M8.2,5.6"/>
</g>
</svg>
