<?xml version="1.0" encoding="utf-8"?>
<!-- Generator: Adobe Illustrator 23.0.1, SVG Export Plug-In . SVG Version: 6.00 Build 0)  -->
<svg version="1.1" id="Layer_1" xmlns="http://www.w3.org/2000/svg" xmlns:xlink="http://www.w3.org/1999/xlink" x="0px" y="0px"
	 viewBox="0 0 19.5 24" style="enable-background:new 0 0 19.5 24;" xml:space="preserve">
<style type="text/css">
	.st0{display:none;fill:#0071BC;}
	.st1{fill:#FF2215;}
	.st2{fill:#FFFFFF;}
	.st3{fill:#2A5699;}
	.st4{opacity:0.8;fill:#828282;}
	.st5{fill:#F34E19;}
	.st6{fill:#F4BA64;}
	.st7{fill:#F7931E;}
	.st8{fill:#039E55;}
	.st9{fill:#1AA5DD;}
	.st10{fill:#525252;}
	.st11{fill:#97BAFF;}
	.st12{fill:#EFC748;}
	.st13{font-family:'Graphik-Medium';}
	.st14{font-size:5px;}
</style>
<g id="RTF_1_">
	<path class="st11" d="M0,21.8c0-6.5,0-13,0-19.5c0,0,0-0.1,0-0.1c0.1-1,0.8-1.8,1.8-2.1C2,0,2.1,0,2.2,0C6.1,0,10,0,13.9,0
		c0,0,0.1,0,0.1,0c0.5,0.1,1,0.3,1.4,0.7c1.2,1.1,2.3,2.3,3.5,3.4c0.3,0.3,0.5,0.7,0.6,1.1c0,0.1,0.1,0.2,0.1,0.4
		c0,5.4,0,10.8,0,16.2c0,0,0,0.1,0,0.1c-0.1,1-0.8,1.8-1.8,2c-0.1,0-0.3,0.1-0.4,0.1c-5,0-10.1,0-15.1,0c0,0-0.1,0-0.1,0
		c-1-0.1-1.8-0.9-2-1.8C0,22,0,21.9,0,21.8z M0.8,12c0,3.2,0,6.4,0,9.5c0,0.1,0,0.3,0,0.4c0.2,0.7,0.8,1.2,1.6,1.2
		c4.9,0,9.7,0,14.6,0c0,0,0.1,0,0.1,0c0.8,0,1.5-0.7,1.5-1.6c0-5.3,0-10.5,0-15.8c0-0.5-0.2-0.8-0.5-1.2c-0.4-0.4-0.9-0.9-1.3-1.3
		c-0.7-0.7-1.4-1.4-2.2-2.1c-0.3-0.3-0.7-0.5-1.1-0.5c-3.7,0-7.5,0-11.2,0c-0.9,0-1.6,0.7-1.6,1.6C0.8,5.6,0.8,8.8,0.8,12z"/>
	<text transform="matrix(1 0 0 1 5.24 20.5236)" class="st13 st14">RTF</text>
	<g>
		<path class="st2" d="M7.9,8.1c0.2,0,0.4,0.1,0.6,0.2c0.1,0.1,0.2,0.3,0.2,0.5c0,0.1,0,0.2-0.1,0.3C8.5,9.2,8.4,9.3,8.2,9.3v0
			c0.2,0,0.3,0.2,0.3,0.4l0,0.4c0,0.1,0.1,0.3,0.1,0.3H8.4c-0.1-0.1-0.1-0.2-0.1-0.3l0-0.3c0-0.1-0.1-0.2-0.1-0.3
			C8.1,9.5,8,9.5,7.8,9.5H7.2v1H6.8V8.1H7.9L7.9,8.1z M7.2,9.2h0.6c0.2,0,0.3,0,0.3-0.1C8.2,9,8.3,8.9,8.3,8.8c0-0.1,0-0.2-0.1-0.3
			C8.1,8.4,8,8.4,7.8,8.4H7.2L7.2,9.2L7.2,9.2z M10.8,8.1v0.3H10v2H9.7v-2H8.9V8.1H10.8z M12.6,8.1v0.3h-1.2v0.7h1.1v0.3h-1.1v1
			h-0.3V8.1H12.6z"/>
		<path class="st11" d="M5.1,4.5v9.3h9.3V4.5H5.1z M8.4,10.4c-0.1-0.1-0.1-0.2-0.1-0.3l0-0.3c0-0.1-0.1-0.2-0.1-0.3
			C8.1,9.5,8,9.5,7.8,9.5H7.2v1H6.8V8.1h1c0.2,0,0.4,0.1,0.6,0.2c0.1,0.1,0.2,0.3,0.2,0.5c0,0.1,0,0.2-0.1,0.3
			C8.5,9.2,8.4,9.3,8.2,9.3v0c0.2,0,0.3,0.2,0.3,0.4l0,0.4c0,0.1,0.1,0.3,0.1,0.3L8.4,10.4L8.4,10.4z M10.8,8.4H10v2H9.7v-2H8.9V8.1
			h1.9V8.4z M12.6,8.4h-1.2v0.7h1.1v0.3h-1.1v1h-0.3V8.1h1.6V8.4z"/>
		<path class="st11" d="M8.2,8.5C8.1,8.4,8,8.4,7.8,8.4H7.2v0.8h0.6c0.2,0,0.3,0,0.3-0.1C8.2,9,8.3,8.9,8.3,8.8
			C8.3,8.7,8.2,8.6,8.2,8.5z"/>
	</g>
</g>
</svg>
