<?xml version="1.0" encoding="utf-8"?>
<!-- Generator: Adobe Illustrator 23.0.1, SVG Export Plug-In . SVG Version: 6.00 Build 0)  -->
<svg version="1.1" id="Layer_1" xmlns="http://www.w3.org/2000/svg" xmlns:xlink="http://www.w3.org/1999/xlink" x="0px" y="0px"
	 viewBox="0 0 19.5 24" style="enable-background:new 0 0 19.5 24;" xml:space="preserve">
<style type="text/css">
	.st0{display:none;fill:#0071BC;}
	.st1{fill:#FF2215;}
	.st2{fill:#FFFFFF;}
	.st3{fill:#2A5699;}
	.st4{opacity:0.8;fill:#828282;}
	.st5{fill:#F34E19;}
	.st6{fill:#F4BA64;}
	.st7{fill:#F7931E;}
	.st8{fill:#039E55;}
	.st9{fill:#1AA5DD;}
	.st10{fill:#525252;}
	.st11{fill:#97BAFF;}
	.st12{fill:#EFC748;}
	.st13{display:none;}
	.st14{display:inline;fill:#1AA5DD;}
	.st15{display:inline;}
</style>
<path class="st0" d="M152.7-104.7c-46.7,0-84.6,37.9-84.6,84.6s37.9,84.6,84.6,84.6s84.6-37.9,84.6-84.6S199.4-104.7,152.7-104.7z
	 M181.4,14.3h-1.6l-23.9-43l-24.3,43h-1.5l-22.8-56.4h8.3l16.4,41l23.1-41h1.6l22.9,41l16.7-41h8.2L181.4,14.3z"/>
<g id="PDF_icon_1_">
	<path class="st1" d="M80,22.8c0-6.5,0-13,0-19.5c0,0,0-0.1,0-0.1c0.1-1,0.8-1.8,1.8-2.1C82,1,82.1,1,82.2,1c3.9,0,7.8,0,11.6,0
		c0,0,0.1,0,0.1,0c0.5,0.1,1,0.3,1.4,0.7c1.2,1.1,2.3,2.3,3.5,3.4c0.3,0.3,0.5,0.7,0.6,1.1c0,0.1,0.1,0.2,0.1,0.4
		c0,5.4,0,10.8,0,16.2c0,0,0,0.1,0,0.1c-0.1,1-0.8,1.8-1.8,2c-0.1,0-0.3,0.1-0.4,0.1c-5,0-10.1,0-15.1,0c0,0-0.1,0-0.1,0
		c-1-0.1-1.8-0.9-2-1.8C80,23,80,22.9,80,22.8z M80.8,13c0,3.2,0,6.4,0,9.5c0,0.1,0,0.3,0,0.4c0.2,0.7,0.8,1.2,1.6,1.2
		c4.9,0,9.7,0,14.6,0c0,0,0.1,0,0.1,0c0.8,0,1.5-0.7,1.5-1.6c0-5.3,0-10.5,0-15.8c0-0.5-0.2-0.8-0.5-1.2c-0.4-0.4-0.9-0.9-1.3-1.3
		c-0.7-0.7-1.4-1.4-2.2-2.1c-0.3-0.3-0.7-0.5-1.1-0.5c-3.7,0-7.5,0-11.2,0c-0.9,0-1.6,0.7-1.6,1.6C80.8,6.6,80.8,9.8,80.8,13z"/>
	<path class="st2" d="M80.8,13c0-3.2,0-6.4,0-9.5c0-0.9,0.7-1.6,1.6-1.6c3.7,0,7.5,0,11.2,0c0.4,0,0.8,0.2,1.1,0.5
		c0.7,0.7,1.4,1.4,2.2,2.1c0.4,0.4,0.9,0.8,1.3,1.3c0.3,0.3,0.5,0.7,0.5,1.2c0,5.3,0,10.5,0,15.8c0,0.8-0.7,1.6-1.5,1.6
		c0,0-0.1,0-0.1,0c-4.9,0-9.7,0-14.6,0c-0.8,0-1.4-0.5-1.6-1.2c0-0.1,0-0.3,0-0.4C80.8,19.4,80.8,16.2,80.8,13z M90.1,7.3
		c0-0.1,0-0.3,0-0.4c0-0.3-0.1-0.6-0.3-0.8c-0.2-0.2-0.4-0.4-0.7-0.3c-0.3,0.1-0.4,0.3-0.5,0.5c-0.1,0.3-0.1,0.7,0,1
		c0.1,0.6,0.3,1.2,0.5,1.7c0,0,0,0.1,0,0.2c-0.4,1.2-0.9,2.3-1.5,3.4c0,0.1-0.1,0.1-0.2,0.2c-0.7,0.3-1.4,0.6-2,1.1
		c-0.2,0.2-0.4,0.4-0.6,0.6c-0.3,0.4-0.1,0.8,0.4,0.9c0.3,0.1,0.6,0,0.9-0.1c0.3-0.2,0.6-0.4,0.9-0.7c0.5-0.6,0.9-1.2,1.3-1.9
		c0-0.1,0.1-0.1,0.1-0.1c0.9-0.3,1.7-0.5,2.6-0.7c0.1,0,0.2,0,0.3,0.1c0.6,0.5,1.2,0.9,2,1c0.4,0.1,0.7,0.1,1.1,0
		c0.5-0.2,0.6-0.7,0.2-1.1c-0.1-0.1-0.2-0.2-0.3-0.2c-0.4-0.2-0.7-0.2-1.1-0.2c-0.6,0-1.1,0-1.7,0.1c-0.1,0-0.1,0-0.2-0.1
		c-0.5-0.5-0.9-1.1-1.3-1.7c-0.1-0.2-0.2-0.4-0.1-0.7C90,8.7,90.1,8,90.1,7.3z M88.8,21.5c0.3,0,0.6,0,1,0c0.7-0.1,1.1-0.4,1.4-1
		c0.2-0.5,0.2-0.9,0.1-1.4c-0.2-0.6-0.6-1-1.2-1.1c-0.3,0-0.6,0-0.8,0c-0.1,0-0.2,0-0.3,0C88.8,19.2,88.8,20.4,88.8,21.5z M86.1,18
		c0,1.2,0,2.4,0,3.5c0.2,0,0.4,0,0.6,0c0-0.4,0-0.8,0-1.2c0.2,0,0.4,0,0.6,0c0.5-0.1,0.8-0.4,0.9-0.8c0.1-0.6-0.2-1.2-0.7-1.3
		C87,18,86.5,18,86.1,18z M91.9,18c0,1.2,0,2.3,0,3.5c0.2,0,0.4,0,0.6,0c0-0.5,0-1,0-1.5c0.4,0,0.8,0,1.2,0c0-0.2,0-0.3,0-0.5
		c-0.4,0-0.8,0-1.2,0c0-0.3,0-0.7,0-1c0.1,0,0.1,0,0.1,0c0.3,0,0.7,0,1,0c0.1,0,0.2,0,0.1-0.2c0-0.1,0-0.2,0-0.3
		c0-0.1,0-0.1-0.1-0.1c-0.5,0-1.1,0-1.6,0C91.9,18,91.9,18,91.9,18z"/>
	<path class="st1" d="M90.1,7.3c0,0.7-0.2,1.4-0.4,2c-0.1,0.3-0.1,0.4,0.1,0.7c0.4,0.6,0.8,1.2,1.3,1.7c0.1,0.1,0.1,0.1,0.2,0.1
		c0.6-0.1,1.1-0.1,1.7-0.1c0.4,0,0.8,0.1,1.1,0.2c0.1,0.1,0.2,0.1,0.3,0.2c0.4,0.3,0.3,0.9-0.2,1.1c-0.4,0.1-0.7,0.1-1.1,0
		c-0.7-0.2-1.4-0.5-2-1C91.2,12,91.2,12,91,12c-0.9,0.2-1.8,0.4-2.6,0.7c-0.1,0-0.1,0.1-0.1,0.1c-0.4,0.7-0.8,1.3-1.3,1.9
		c-0.3,0.3-0.5,0.5-0.9,0.7c-0.3,0.1-0.6,0.2-0.9,0.1c-0.4-0.1-0.6-0.6-0.4-0.9c0.1-0.2,0.3-0.4,0.6-0.6c0.6-0.5,1.3-0.8,2-1.1
		c0.1,0,0.1-0.1,0.2-0.2c0.6-1.1,1.1-2.3,1.5-3.4c0,0,0-0.1,0-0.2c-0.2-0.6-0.4-1.1-0.5-1.7c0-0.4-0.1-0.7,0-1
		c0.1-0.3,0.2-0.5,0.5-0.5c0.3-0.1,0.6,0.1,0.7,0.3c0.2,0.2,0.2,0.5,0.3,0.8C90.2,7,90.1,7.2,90.1,7.3z M88.5,12.5
		c0.8-0.2,1.6-0.4,2.5-0.6c-0.6-0.6-1-1.2-1.4-1.9C89.2,10.8,88.9,11.6,88.5,12.5z M87.4,13.1C87.4,13.1,87.4,13.1,87.4,13.1
		c-0.2,0.1-0.4,0.1-0.6,0.2c-0.5,0.3-1,0.5-1.5,0.9c-0.1,0.1-0.3,0.3-0.4,0.5c-0.1,0.2-0.1,0.3,0.1,0.5c0.1,0.1,0.3,0.2,0.4,0.1
		c0.2-0.1,0.3-0.1,0.4-0.2C86.5,14.5,87,13.8,87.4,13.1z M91.5,11.9C91.5,12,91.5,12,91.5,11.9c0.5,0.5,1.1,0.9,1.9,1
		c0.2,0,0.4,0,0.5-0.1c0.2-0.1,0.3-0.2,0.3-0.4c0-0.2-0.1-0.3-0.3-0.4c-0.1-0.1-0.2-0.1-0.3-0.1c-0.4-0.1-0.9-0.1-1.4,0
		C91.9,11.9,91.7,11.9,91.5,11.9z M89.2,8.9C89.2,8.9,89.2,8.9,89.2,8.9c0.2-0.4,0.5-1.6,0.5-2.1c0-0.2,0-0.4-0.1-0.5
		c0-0.2-0.2-0.3-0.3-0.3c-0.2,0-0.3,0.1-0.4,0.2c-0.1,0.1-0.1,0.2-0.1,0.3c-0.1,0.5,0,1,0.1,1.4C89,8.3,89.1,8.6,89.2,8.9z"/>
	<path d="M88.8,21.5c0-1.2,0-2.3,0-3.5c0.1,0,0.2,0,0.3,0c0.3,0,0.6,0,0.8,0c0.6,0.1,1.1,0.5,1.2,1.1c0.1,0.5,0.1,1-0.1,1.4
		c-0.2,0.6-0.7,1-1.4,1C89.4,21.6,89.1,21.5,88.8,21.5z M89.3,19.8c0,0.4,0,0.8,0,1.1c0,0.1,0,0.1,0.1,0.1c0.4,0,0.9-0.1,1.1-0.6
		c0.2-0.4,0.2-0.8,0.1-1.2c-0.1-0.4-0.4-0.6-0.8-0.7c-0.1,0-0.2,0-0.3,0c-0.1,0-0.1,0-0.1,0.1C89.3,19,89.3,19.4,89.3,19.8z"/>
	<path d="M86.1,18c0.5,0,0.9-0.1,1.3,0.1c0.6,0.2,0.9,0.7,0.7,1.3c-0.1,0.4-0.4,0.7-0.9,0.8c-0.2,0-0.4,0-0.6,0c0,0.4,0,0.8,0,1.2
		c-0.2,0-0.4,0-0.6,0C86.1,20.4,86.1,19.2,86.1,18z M86.6,19.8c0.2,0,0.5,0,0.7-0.1c0.2-0.1,0.3-0.3,0.3-0.6c0-0.3-0.1-0.5-0.4-0.5
		c-0.2,0-0.4,0-0.5,0c0,0-0.1,0.1-0.1,0.1c0,0.2,0,0.3,0,0.5C86.6,19.3,86.6,19.5,86.6,19.8z"/>
	<path d="M91.9,18c0,0,0.1,0,0.1,0c0.5,0,1.1,0,1.6,0c0.1,0,0.1,0,0.1,0.1c0,0.1,0,0.2,0,0.3c0,0.1,0,0.2-0.1,0.2c-0.3,0-0.7,0-1,0
		c0,0-0.1,0-0.1,0c0,0.3,0,0.7,0,1c0.4,0,0.8,0,1.2,0c0,0.2,0,0.3,0,0.5c-0.4,0-0.8,0-1.2,0c0,0.5,0,1,0,1.5c-0.2,0-0.4,0-0.6,0
		C91.9,20.4,91.9,19.2,91.9,18z"/>
</g>
<g id="WORD">
	<path class="st3" d="M107-9.2c0-6.5,0-13,0-19.5c0,0,0-0.1,0-0.1c0.1-1,0.8-1.8,1.8-2.1c0.1,0,0.3-0.1,0.4-0.1c3.9,0,7.8,0,11.6,0
		c0,0,0.1,0,0.1,0c0.5,0.1,1,0.3,1.4,0.7c1.2,1.1,2.3,2.3,3.5,3.4c0.3,0.3,0.5,0.7,0.6,1.1c0,0.1,0.1,0.2,0.1,0.4
		c0,5.4,0,10.8,0,16.2c0,0,0,0.1,0,0.1c-0.1,1-0.8,1.8-1.8,2c-0.1,0-0.3,0.1-0.4,0.1c-5,0-10.1,0-15.1,0c0,0-0.1,0-0.1,0
		c-1-0.1-1.8-0.9-2-1.8C107-9,107-9.1,107-9.2z M107.8-19c0,3.2,0,6.4,0,9.5c0,0.1,0,0.3,0,0.4c0.2,0.7,0.8,1.2,1.6,1.2
		c4.9,0,9.7,0,14.6,0c0,0,0.1,0,0.1,0c0.8,0,1.5-0.7,1.5-1.6c0-5.3,0-10.5,0-15.8c0-0.5-0.2-0.8-0.5-1.2c-0.4-0.4-0.9-0.9-1.3-1.3
		c-0.7-0.7-1.4-1.4-2.2-2.1c-0.3-0.3-0.7-0.5-1.1-0.5c-3.7,0-7.5,0-11.2,0c-0.9,0-1.6,0.7-1.6,1.6C107.8-25.4,107.8-22.2,107.8-19z"
		/>
	<path class="st4" d="M111.2-15h11.1c0.2,0,0.4-0.2,0.4-0.4s-0.2-0.4-0.4-0.4h-11.1c-0.2,0-0.4,0.2-0.4,0.4S110.9-15,111.2-15
		L111.2-15z M111.2-12.7h11.1c0.2,0,0.4-0.2,0.4-0.4c0-0.2-0.2-0.4-0.4-0.4h-11.1c-0.2,0-0.4,0.2-0.4,0.4
		C110.7-12.9,110.9-12.7,111.2-12.7L111.2-12.7z M111.2-10.4h11.1c0.2,0,0.4-0.2,0.4-0.4c0-0.2-0.2-0.4-0.4-0.4h-11.1
		c-0.2,0-0.4,0.2-0.4,0.4C110.7-10.6,110.9-10.4,111.2-10.4L111.2-10.4z M109.8-8.3"/>
	<g>
		<path class="st3" d="M115.3-19h-1.4l-1.6-6.8h1.4L115.3-19z M115.3-19"/>
		<path class="st3" d="M114-19h1.4l1.6-6.8h-1.4L114-19z M114-19"/>
		<path class="st3" d="M119.5-19h-1.4l-1.6-6.8h1.4L119.5-19z M119.5-19"/>
		<path class="st3" d="M118.2-19h1.4l1.6-6.8h-1.4L118.2-19z M118.2-19"/>
	</g>
</g>
<g id="POWER_POINT">
	<path class="st5" d="M162.1-9.1c0-6.5,0-13,0-19.5c0,0,0-0.1,0-0.1c0.1-1,0.8-1.8,1.8-2.1c0.1,0,0.3-0.1,0.4-0.1
		c3.9,0,7.8,0,11.6,0c0,0,0.1,0,0.1,0c0.5,0.1,1,0.3,1.4,0.7c1.2,1.1,2.3,2.3,3.5,3.4c0.3,0.3,0.5,0.7,0.6,1.1
		c0,0.1,0.1,0.2,0.1,0.4c0,5.4,0,10.8,0,16.2c0,0,0,0.1,0,0.1c-0.1,1-0.8,1.8-1.8,2c-0.1,0-0.3,0.1-0.4,0.1c-5,0-10.1,0-15.1,0
		c0,0-0.1,0-0.1,0c-1-0.1-1.8-0.9-2-1.8C162.1-8.9,162.1-9,162.1-9.1z M162.9-18.9c0,3.2,0,6.4,0,9.5c0,0.1,0,0.3,0,0.4
		c0.2,0.7,0.8,1.2,1.6,1.2c4.9,0,9.7,0,14.6,0c0,0,0.1,0,0.1,0c0.8,0,1.5-0.7,1.5-1.6c0-5.3,0-10.5,0-15.8c0-0.5-0.2-0.8-0.5-1.2
		c-0.4-0.4-0.9-0.9-1.3-1.3c-0.7-0.7-1.4-1.4-2.2-2.1c-0.3-0.3-0.7-0.5-1.1-0.5c-3.7,0-7.5,0-11.2,0c-0.9,0-1.6,0.7-1.6,1.6
		C162.9-25.3,162.9-22.1,162.9-18.9z"/>
	<g>
		<path class="st6" d="M175.6-15.8c-1.5,0-2.8,1.2-2.8,2.8c0,1.5,1.2,2.8,2.8,2.8c1.5,0,2.8-1.2,2.8-2.8h-2.8V-15.8z M175.6-15.8"/>
		<path class="st7" d="M176.1-16.2v2.8h2.8C178.9-15,177.6-16.2,176.1-16.2L176.1-16.2z M176.1-16.2"/>
	</g>
	<g>
		<path class="st4" d="M166.5-14.8h4.9c0.1,0,0.2-0.2,0.2-0.4c0-0.2-0.1-0.4-0.2-0.4h-4.9c-0.1,0-0.2,0.2-0.2,0.4
			C166.3-15,166.4-14.8,166.5-14.8L166.5-14.8z"/>
		<path class="st4" d="M166.5-12.7h4.5c0.1,0,0.2-0.2,0.2-0.4s-0.1-0.4-0.2-0.4h-4.5c-0.1,0-0.2,0.2-0.2,0.4S166.4-12.7,166.5-12.7
			L166.5-12.7z"/>
		<path class="st4" d="M166.5-10.8h5.2c0.1,0,0.2-0.2,0.2-0.4c0-0.2-0.1-0.4-0.2-0.4h-5.2c-0.1,0-0.2,0.2-0.2,0.4
			C166.3-11,166.4-10.8,166.5-10.8L166.5-10.8z"/>
	</g>
	<path class="st5" d="M168.5-18v-8.7h2.8c1.1,0,1.8,0,2.1,0.1c0.5,0.1,0.9,0.4,1.3,0.9c0.3,0.4,0.5,1,0.5,1.7c0,0.5-0.1,1-0.3,1.3
		c-0.2,0.4-0.4,0.6-0.7,0.9c-0.3,0.2-0.6,0.3-0.9,0.4c-0.4,0.1-1,0.1-1.8,0.1h-1.1v3.3L168.5-18L168.5-18z M170.3-25.3v2.5h1
		c0.7,0,1.2,0,1.4-0.1c0.2-0.1,0.4-0.2,0.5-0.4c0.1-0.2,0.2-0.4,0.2-0.7c0-0.3-0.1-0.6-0.3-0.8c-0.2-0.2-0.4-0.3-0.7-0.4
		c-0.2,0-0.6-0.1-1.3-0.1L170.3-25.3L170.3-25.3z M170.3-25.3"/>
</g>
<g>
	<path class="st8" d="M134.5-9.1c0-6.5,0-13,0-19.5c0,0,0-0.1,0-0.1c0.1-1,0.8-1.8,1.8-2.1c0.1,0,0.3-0.1,0.4-0.1
		c3.9,0,7.8,0,11.6,0c0,0,0.1,0,0.1,0c0.5,0.1,1,0.3,1.4,0.7c1.2,1.1,2.3,2.3,3.5,3.4c0.3,0.3,0.5,0.7,0.6,1.1
		c0,0.1,0.1,0.2,0.1,0.4c0,5.4,0,10.8,0,16.2c0,0,0,0.1,0,0.1c-0.1,1-0.8,1.8-1.8,2c-0.1,0-0.3,0.1-0.4,0.1c-5,0-10.1,0-15.1,0
		c0,0-0.1,0-0.1,0c-1-0.1-1.8-0.9-2-1.8C134.6-8.9,134.6-9,134.5-9.1z M135.3-18.9c0,3.2,0,6.4,0,9.5c0,0.1,0,0.3,0,0.4
		c0.2,0.7,0.8,1.2,1.6,1.2c4.9,0,9.7,0,14.6,0c0,0,0.1,0,0.1,0c0.8,0,1.5-0.7,1.5-1.6c0-5.3,0-10.5,0-15.8c0-0.5-0.2-0.8-0.5-1.2
		c-0.4-0.4-0.9-0.9-1.3-1.3c-0.7-0.7-1.4-1.4-2.2-2.1c-0.3-0.3-0.7-0.5-1.1-0.5c-3.7,0-7.5,0-11.2,0c-0.9,0-1.6,0.7-1.6,1.6
		C135.3-25.3,135.3-22.1,135.3-18.9z"/>
	<g>
		<path class="st4" d="M139-14.8h4.6c0.1,0,0.2-0.2,0.2-0.4c0-0.2-0.1-0.4-0.2-0.4H139c-0.1,0-0.2,0.2-0.2,0.4
			C138.8-15,138.9-14.8,139-14.8L139-14.8z"/>
		<path class="st4" d="M145-14.8h4.6c0.1,0,0.2-0.2,0.2-0.4c0-0.2-0.1-0.4-0.2-0.4H145c-0.1,0-0.2,0.2-0.2,0.4
			C144.8-15,144.9-14.8,145-14.8L145-14.8z"/>
		<path class="st4" d="M139-12.7h4.6c0.1,0,0.2-0.2,0.2-0.4s-0.1-0.4-0.2-0.4H139c-0.1,0-0.2,0.2-0.2,0.4S138.9-12.7,139-12.7
			L139-12.7z"/>
		<path class="st4" d="M145-12.7h4.6c0.1,0,0.2-0.2,0.2-0.4s-0.1-0.4-0.2-0.4H145c-0.1,0-0.2,0.2-0.2,0.4S144.9-12.7,145-12.7
			L145-12.7z"/>
		<path class="st4" d="M139-10.8h4.6c0.1,0,0.2-0.2,0.2-0.4c0-0.2-0.1-0.4-0.2-0.4H139c-0.1,0-0.2,0.2-0.2,0.4
			C138.8-11,138.9-10.8,139-10.8L139-10.8z"/>
		<path class="st4" d="M145-10.8h4.6c0.1,0,0.2-0.2,0.2-0.4c0-0.2-0.1-0.4-0.2-0.4H145c-0.1,0-0.2,0.2-0.2,0.4
			C144.8-11,144.9-10.8,145-10.8L145-10.8z"/>
	</g>
	<path class="st8" d="M148.8-25.2h-2.9l-1.5,2l-1.5-2h-3l2.7,3l-3,3.3h3l1.7-2l1.7,2h3l-3-3.3L148.8-25.2z"/>
</g>
<g id="POWER_POINT_1_">
	<path class="st9" d="M190.7-8.3c0-6.5,0-13,0-19.5c0,0,0-0.1,0-0.1c0.1-1,0.8-1.8,1.8-2.1c0.1,0,0.3-0.1,0.4-0.1
		c3.9,0,7.8,0,11.6,0c0,0,0.1,0,0.1,0c0.5,0.1,1,0.3,1.4,0.7c1.2,1.1,2.3,2.3,3.5,3.4c0.3,0.3,0.5,0.7,0.6,1.1
		c0,0.1,0.1,0.2,0.1,0.4c0,5.4,0,10.8,0,16.2c0,0,0,0.1,0,0.1c-0.1,1-0.8,1.8-1.8,2c-0.1,0-0.3,0.1-0.4,0.1c-5,0-10.1,0-15.1,0
		c0,0-0.1,0-0.1,0c-1-0.1-1.8-0.9-2-1.8C190.7-8,190.7-8.1,190.7-8.3z M191.5-18c0,3.2,0,6.4,0,9.5c0,0.1,0,0.3,0,0.4
		c0.2,0.7,0.8,1.2,1.6,1.2c4.9,0,9.7,0,14.6,0c0,0,0.1,0,0.1,0c0.8,0,1.5-0.7,1.5-1.6c0-5.3,0-10.5,0-15.8c0-0.5-0.2-0.8-0.5-1.2
		c-0.4-0.4-0.9-0.9-1.3-1.3c-0.7-0.7-1.4-1.4-2.2-2.1c-0.3-0.3-0.7-0.5-1.1-0.5c-3.7,0-7.5,0-11.2,0c-0.9,0-1.6,0.7-1.6,1.6
		C191.5-24.4,191.5-21.2,191.5-18z"/>
	<g>
		<path class="st9" d="M191.6-11.4c-0.1,0-0.3-0.1-0.4-0.2c-0.2-0.2-0.2-0.6,0-0.8l4.5-4.7c0.6-0.6,1.6-0.6,2.1,0.1l3.7,4.5
			c0.2,0.2,0.2,0.6-0.1,0.8c-0.2,0.2-0.6,0.2-0.8-0.1l-3.5-4.3c-0.2-0.2-0.5-0.2-0.8,0l-4.3,4.5C191.9-11.5,191.8-11.4,191.6-11.4
			L191.6-11.4z"/>
		<path class="st9" d="M209.6-11.4c-0.2,0-0.3-0.1-0.4-0.2l-6.1-7c-0.2-0.2-0.5-0.2-0.6,0l-2.3,2.5c-0.2,0.2-0.6,0.3-0.8,0
			c-0.2-0.2-0.2-0.6,0-0.8l2.1-2.4c0.7-0.8,1.9-0.8,2.6,0l5.9,6.9c0.2,0.2,0.2,0.6,0,0.8C209.8-11.4,209.7-11.4,209.6-11.4
			L209.6-11.4z"/>
		<path class="st9" d="M197.1-19.9c-1.6,0-2.9-1.3-2.9-2.9s1.3-2.9,2.9-2.9c1.6,0,2.9,1.3,2.9,2.9S198.8-19.9,197.1-19.9L197.1-19.9
			z"/>
	</g>
</g>
<g id="TET">
	<path class="st10" d="M106.8,22.5c0-6.5,0-13,0-19.5c0,0,0-0.1,0-0.1c0.1-1,0.8-1.8,1.8-2.1c0.1,0,0.3-0.1,0.4-0.1
		c3.9,0,7.8,0,11.6,0c0,0,0.1,0,0.1,0c0.5,0.1,1,0.3,1.4,0.7c1.2,1.1,2.3,2.3,3.5,3.4c0.3,0.3,0.5,0.7,0.6,1.1
		c0,0.1,0.1,0.2,0.1,0.4c0,5.4,0,10.8,0,16.2c0,0,0,0.1,0,0.1c-0.1,1-0.8,1.8-1.8,2c-0.1,0-0.3,0.1-0.4,0.1c-5,0-10.1,0-15.1,0
		c0,0-0.1,0-0.1,0c-1-0.1-1.8-0.9-2-1.8C106.9,22.7,106.8,22.6,106.8,22.5z M107.6,12.7c0,3.2,0,6.4,0,9.5c0,0.1,0,0.3,0,0.4
		c0.2,0.7,0.8,1.2,1.6,1.2c4.9,0,9.7,0,14.6,0c0,0,0.1,0,0.1,0c0.8,0,1.5-0.7,1.5-1.6c0-5.3,0-10.5,0-15.8c0-0.5-0.2-0.8-0.5-1.2
		c-0.4-0.4-0.9-0.9-1.3-1.3c-0.7-0.7-1.4-1.4-2.2-2.1c-0.3-0.3-0.7-0.5-1.1-0.5c-3.7,0-7.5,0-11.2,0c-0.9,0-1.6,0.7-1.6,1.6
		C107.6,6.3,107.6,9.5,107.6,12.7z"/>
	<path class="st10" d="M120.2,5.1h-7.3c-0.6,0-1,0.5-1,1v7.3c0,0.6,0.5,1,1,1h7.3c0.6,0,1-0.5,1-1V6.2
		C121.2,5.6,120.8,5.1,120.2,5.1z M118.8,7.9h-1.9v4.5h-0.7V7.9h-1.8V7.2h4.4V7.9z"/>
	<path class="st4" d="M111.5,19.3h11.1c0.2,0,0.4-0.2,0.4-0.4c0-0.2-0.2-0.4-0.4-0.4h-11.1c-0.2,0-0.4,0.2-0.4,0.4
		C111.1,19.1,111.2,19.3,111.5,19.3L111.5,19.3z M111.5,21.6h11.1c0.2,0,0.4-0.2,0.4-0.4c0-0.2-0.2-0.4-0.4-0.4h-11.1
		c-0.2,0-0.4,0.2-0.4,0.4C111.1,21.4,111.2,21.6,111.5,21.6L111.5,21.6z M110.1,23.7"/>
</g>
<g id="OTD">
	<path d="M134.4,22.6c0-6.5,0-13,0-19.5c0,0,0-0.1,0-0.1c0.1-1,0.8-1.8,1.8-2.1c0.1,0,0.3-0.1,0.4-0.1c3.9,0,7.8,0,11.6,0
		c0,0,0.1,0,0.1,0c0.5,0.1,1,0.3,1.4,0.7c1.2,1.1,2.3,2.3,3.5,3.4c0.3,0.3,0.5,0.7,0.6,1.1c0,0.1,0.1,0.2,0.1,0.4
		c0,5.4,0,10.8,0,16.2c0,0,0,0.1,0,0.1c-0.1,1-0.8,1.8-1.8,2c-0.1,0-0.3,0.1-0.4,0.1c-5,0-10.1,0-15.1,0c0,0-0.1,0-0.1,0
		c-1-0.1-1.8-0.9-2-1.8C134.4,22.8,134.4,22.7,134.4,22.6z M135.2,12.8c0,3.2,0,6.4,0,9.5c0,0.1,0,0.3,0,0.4
		c0.2,0.7,0.8,1.2,1.6,1.2c4.9,0,9.7,0,14.6,0c0,0,0.1,0,0.1,0c0.8,0,1.5-0.7,1.5-1.6c0-5.3,0-10.5,0-15.8c0-0.5-0.2-0.8-0.5-1.2
		c-0.4-0.4-0.9-0.9-1.3-1.3c-0.7-0.7-1.4-1.4-2.2-2.1c-0.3-0.3-0.7-0.5-1.1-0.5c-3.7,0-7.5,0-11.2,0c-0.9,0-1.6,0.7-1.6,1.6
		C135.2,6.4,135.2,9.6,135.2,12.8z"/>
	<text transform="matrix(1 0 0 1 138.8449 21.3306)" style="font-family:'Graphik-Medium'; font-size:5px;">OTD</text>
	<path d="M148.2,6.6c-1.3-0.6-3-0.7-4.2,0.1c1.5-0.1,3.1,0.1,4.2,1.2c1-1.2,2.7-1.4,4.2-1.3C151.1,5.9,149.4,6,148.2,6.6L148.2,6.6z
		 M147.6,9.5c-1.5,0-2.9,0.5-4.1,1.3c-2.3-1-5.2-0.8-7.2,0.8c0.6,0,1.1-0.2,1.7-0.2c2.1-0.2,4.3,0.3,5.8,1.7
		c0.6-0.9,1.5-1.7,2.6-2.2c1.4-0.7,2.9-0.7,4.4-0.7C149.8,9.6,148.7,9.5,147.6,9.5L147.6,9.5z"/>
</g>
<g id="RTF">
	<path class="st11" d="M161.9,22.7c0-6.5,0-13,0-19.5c0,0,0-0.1,0-0.1c0.1-1,0.8-1.8,1.8-2.1c0.1,0,0.3-0.1,0.4-0.1
		c3.9,0,7.8,0,11.6,0c0,0,0.1,0,0.1,0c0.5,0.1,1,0.3,1.4,0.7c1.2,1.1,2.3,2.3,3.5,3.4c0.3,0.3,0.5,0.7,0.6,1.1
		c0,0.1,0.1,0.2,0.1,0.4c0,5.4,0,10.8,0,16.2c0,0,0,0.1,0,0.1c-0.1,1-0.8,1.8-1.8,2c-0.1,0-0.3,0.1-0.4,0.1c-5,0-10.1,0-15.1,0
		c0,0-0.1,0-0.1,0c-1-0.1-1.8-0.9-2-1.8C161.9,22.9,161.9,22.8,161.9,22.7z M162.7,12.9c0,3.2,0,6.4,0,9.5c0,0.1,0,0.3,0,0.4
		c0.2,0.7,0.8,1.2,1.6,1.2c4.9,0,9.7,0,14.6,0c0,0,0.1,0,0.1,0c0.8,0,1.5-0.7,1.5-1.6c0-5.3,0-10.5,0-15.8c0-0.5-0.2-0.8-0.5-1.2
		c-0.4-0.4-0.9-0.9-1.3-1.3c-0.7-0.7-1.4-1.4-2.2-2.1c-0.3-0.3-0.7-0.5-1.1-0.5c-3.7,0-7.5,0-11.2,0c-0.9,0-1.6,0.7-1.6,1.6
		C162.7,6.5,162.7,9.7,162.7,12.9z"/>
	<text transform="matrix(1 0 0 1 167.1085 21.4375)" style="font-family:'Graphik-Medium'; font-size:5px;">RTF</text>
	<g>
		<path class="st2" d="M169.7,9c0.2,0,0.4,0.1,0.6,0.2c0.1,0.1,0.2,0.3,0.2,0.5c0,0.1,0,0.2-0.1,0.3c-0.1,0.1-0.2,0.2-0.3,0.2v0
			c0.2,0,0.3,0.2,0.3,0.4l0,0.4c0,0.1,0.1,0.3,0.1,0.3h-0.4c-0.1-0.1-0.1-0.2-0.1-0.3l0-0.3c0-0.1-0.1-0.2-0.1-0.3
			c-0.1-0.1-0.2-0.1-0.3-0.1h-0.6v1h-0.3V9H169.7L169.7,9z M169.1,10.1h0.6c0.2,0,0.3,0,0.3-0.1c0.1-0.1,0.1-0.2,0.1-0.3
			c0-0.1,0-0.2-0.1-0.3c-0.1-0.1-0.2-0.1-0.4-0.1h-0.6L169.1,10.1L169.1,10.1z M172.7,9v0.3h-0.8v2h-0.3v-2h-0.8V9H172.7z M174.5,9
			v0.3h-1.2V10h1.1v0.3h-1.1v1h-0.3V9H174.5z"/>
		<path class="st11" d="M167,5.5v9.3h9.3V5.5H167z M170.2,11.3c-0.1-0.1-0.1-0.2-0.1-0.3l0-0.3c0-0.1-0.1-0.2-0.1-0.3
			c-0.1-0.1-0.2-0.1-0.3-0.1h-0.6v1h-0.3V9h1c0.2,0,0.4,0.1,0.6,0.2c0.1,0.1,0.2,0.3,0.2,0.5c0,0.1,0,0.2-0.1,0.3
			c-0.1,0.1-0.2,0.2-0.3,0.2v0c0.2,0,0.3,0.2,0.3,0.4l0,0.4c0,0.1,0.1,0.3,0.1,0.3L170.2,11.3L170.2,11.3z M172.7,9.3h-0.8v2h-0.3
			v-2h-0.8V9h1.9V9.3z M174.5,9.3h-1.2V10h1.1v0.3h-1.1v1h-0.3V9h1.6V9.3z"/>
		<path class="st11" d="M170,9.4c-0.1-0.1-0.2-0.1-0.4-0.1h-0.6v0.8h0.6c0.2,0,0.3,0,0.3-0.1c0.1-0.1,0.1-0.2,0.1-0.3
			C170.2,9.6,170.1,9.5,170,9.4z"/>
	</g>
</g>
<g id="OTD_1_">
	<path class="st12" d="M190.7,22.4c0-6.5,0-13,0-19.5c0,0,0-0.1,0-0.1c0.1-1,0.8-1.8,1.8-2.1c0.1,0,0.3-0.1,0.4-0.1
		c3.9,0,7.8,0,11.6,0c0,0,0.1,0,0.1,0c0.5,0.1,1,0.3,1.4,0.7c1.2,1.1,2.3,2.3,3.5,3.4c0.3,0.3,0.5,0.7,0.6,1.1
		c0,0.1,0.1,0.2,0.1,0.4c0,5.4,0,10.8,0,16.2c0,0,0,0.1,0,0.1c-0.1,1-0.8,1.8-1.8,2c-0.1,0-0.3,0.1-0.4,0.1c-5,0-10.1,0-15.1,0
		c0,0-0.1,0-0.1,0c-1-0.1-1.8-0.9-2-1.8C190.7,22.7,190.7,22.6,190.7,22.4z M191.5,12.7c0,3.2,0,6.4,0,9.5c0,0.1,0,0.3,0,0.4
		c0.2,0.7,0.8,1.2,1.6,1.2c4.9,0,9.7,0,14.6,0c0,0,0.1,0,0.1,0c0.8,0,1.5-0.7,1.5-1.6c0-5.3,0-10.5,0-15.8c0-0.5-0.2-0.8-0.5-1.2
		c-0.4-0.4-0.9-0.9-1.3-1.3c-0.7-0.7-1.4-1.4-2.2-2.1c-0.3-0.3-0.7-0.5-1.1-0.5c-3.7,0-7.5,0-11.2,0c-0.9,0-1.6,0.7-1.6,1.6
		C191.5,6.3,191.5,9.5,191.5,12.7z"/>
	<text transform="matrix(1 0 0 1 194.6546 21.1831)" style="font-family:'Graphik-Medium'; font-size:5px;">MSG</text>
	<g>
		<path class="st12" d="M200,11.6l-5-4.4c0-0.7,0.5-0.7,0.5-0.7h3h3.6h3c0,0,0.5,0,0.5,0.7l-4.9,4.4c0,0-0.1,0-0.1,0.1v0
			c-0.1,0-0.2,0-0.3,0c-0.1,0-0.2,0-0.3,0v0C200.1,11.7,200,11.6,200,11.6L200,11.6z M200.4,12.6c-0.2,0-0.4-0.1-0.7-0.3
			c-0.6-0.5-4.6-4.1-4.6-4.1v5.5c0,0,0,0.6,0.6,0.6h4.5h0.5h4.4c0.6,0,0.6-0.6,0.6-0.6V8.1c0,0-4,3.7-4.6,4.1
			C200.9,12.5,200.6,12.6,200.4,12.6L200.4,12.6z"/>
	</g>
</g>
<g id="POWER_POINT_3_" class="st13">
	<path class="st14" d="M0,21.8c0-6.5,0-13,0-19.5c0,0,0-0.1,0-0.1c0.1-1,0.8-1.8,1.8-2.1C2,0,2.1,0,2.2,0C6.1,0,10,0,13.9,0
		c0,0,0.1,0,0.1,0c0.5,0.1,1,0.3,1.4,0.7c1.2,1.1,2.3,2.3,3.5,3.4c0.3,0.3,0.5,0.7,0.6,1.1c0,0.1,0.1,0.2,0.1,0.4
		c0,5.4,0,10.8,0,16.2c0,0,0,0.1,0,0.1c-0.1,1-0.8,1.8-1.8,2c-0.1,0-0.3,0.1-0.4,0.1c-5,0-10.1,0-15.1,0c0,0-0.1,0-0.1,0
		c-1-0.1-1.8-0.9-2-1.8C0,22,0,21.9,0,21.8z M0.8,12c0,3.2,0,6.4,0,9.5c0,0.1,0,0.3,0,0.4c0.2,0.7,0.8,1.2,1.6,1.2
		c4.9,0,9.7,0,14.6,0c0,0,0.1,0,0.1,0c0.8,0,1.5-0.7,1.5-1.6c0-5.3,0-10.5,0-15.8c0-0.5-0.2-0.8-0.5-1.2c-0.4-0.4-0.9-0.9-1.3-1.3
		c-0.7-0.7-1.4-1.4-2.2-2.1c-0.3-0.3-0.7-0.5-1.1-0.5c-3.7,0-7.5,0-11.2,0c-0.9,0-1.6,0.7-1.6,1.6C0.8,5.6,0.8,8.8,0.8,12z"/>
	<g class="st15">
		<path class="st9" d="M0.9,18.6c-0.1,0-0.3-0.1-0.4-0.2c-0.2-0.2-0.2-0.6,0-0.8L5,12.9c0.6-0.6,1.6-0.6,2.1,0.1l3.7,4.5
			c0.2,0.2,0.2,0.6-0.1,0.8c-0.2,0.2-0.6,0.2-0.8-0.1L6.4,14c-0.2-0.2-0.5-0.2-0.8,0l-4.3,4.5C1.2,18.6,1.1,18.6,0.9,18.6L0.9,18.6z
			"/>
		<path class="st9" d="M18.9,18.6c-0.2,0-0.3-0.1-0.4-0.2l-6.1-7c-0.2-0.2-0.5-0.2-0.6,0l-2.3,2.5c-0.2,0.2-0.6,0.3-0.8,0
			c-0.2-0.2-0.2-0.6,0-0.8l2.1-2.4c0.7-0.8,1.9-0.8,2.6,0l5.9,6.9c0.2,0.2,0.2,0.6,0,0.8C19.2,18.6,19,18.6,18.9,18.6L18.9,18.6z"/>
		<path class="st9" d="M6.5,10.2c-1.6,0-2.9-1.3-2.9-2.9c0-1.6,1.3-2.9,2.9-2.9s2.9,1.3,2.9,2.9C9.4,8.8,8.1,10.2,6.5,10.2L6.5,10.2
			z"/>
	</g>
</g>
<g id="TET_1_">
	<path class="st10" d="M0,21.8c0-6.5,0-13,0-19.5c0,0,0-0.1,0-0.1c0.1-1,0.8-1.8,1.8-2.1C2,0,2.1,0,2.2,0C6.1,0,10,0,13.9,0
		c0,0,0.1,0,0.1,0c0.5,0.1,1,0.3,1.4,0.7c1.2,1.1,2.3,2.3,3.5,3.4c0.3,0.3,0.5,0.7,0.6,1.1c0,0.1,0.1,0.2,0.1,0.4
		c0,5.4,0,10.8,0,16.2c0,0,0,0.1,0,0.1c-0.1,1-0.8,1.8-1.8,2c-0.1,0-0.3,0.1-0.4,0.1c-5,0-10.1,0-15.1,0c0,0-0.1,0-0.1,0
		c-1-0.1-1.8-0.9-2-1.8C0,22,0,21.9,0,21.8z M0.8,12c0,3.2,0,6.4,0,9.5c0,0.1,0,0.3,0,0.4c0.2,0.7,0.8,1.2,1.6,1.2
		c4.9,0,9.7,0,14.6,0c0,0,0.1,0,0.1,0c0.8,0,1.5-0.7,1.5-1.6c0-5.3,0-10.5,0-15.8c0-0.5-0.2-0.8-0.5-1.2c-0.4-0.4-0.9-0.9-1.3-1.3
		c-0.7-0.7-1.4-1.4-2.2-2.1c-0.3-0.3-0.7-0.5-1.1-0.5c-3.7,0-7.5,0-11.2,0c-0.9,0-1.6,0.7-1.6,1.6C0.8,5.6,0.8,8.8,0.8,12z"/>
	<path class="st10" d="M13.4,4.4H6.1c-0.6,0-1,0.5-1,1v7.3c0,0.6,0.5,1,1,1h7.3c0.6,0,1-0.5,1-1V5.5C14.4,4.9,14,4.4,13.4,4.4z
		 M12,7.2h-1.9v4.5H9.4V7.2H7.6V6.5H12V7.2z"/>
	<path class="st4" d="M4.7,18.6h11.1c0.2,0,0.4-0.2,0.4-0.4c0-0.2-0.2-0.4-0.4-0.4H4.7c-0.2,0-0.4,0.2-0.4,0.4
		C4.2,18.4,4.4,18.6,4.7,18.6L4.7,18.6z M4.7,20.9h11.1c0.2,0,0.4-0.2,0.4-0.4c0-0.2-0.2-0.4-0.4-0.4H4.7c-0.2,0-0.4,0.2-0.4,0.4
		C4.2,20.7,4.4,20.9,4.7,20.9L4.7,20.9z M3.3,23"/>
</g>
</svg>
