<svg id="adaeeaae-411e-41f8-b6ab-5e4c938cbc2f" data-name="Layer 1" xmlns="http://www.w3.org/2000/svg" viewBox="0 0 19.53 24"><defs><style>.a7c06513-56bb-4696-aff3-288ee7121c35{fill:#039e55;}.b1f94d3b-6435-4208-a0d2-1a7db0888de4{fill:#828282;opacity:0.8;}</style></defs><title>excel_icon</title><path class="a7c06513-56bb-4696-aff3-288ee7121c35" d="M0,21.76V2.24l0-.1A2.37,2.37,0,0,1,1.83.08L2.21,0H13.86L14,0a2.34,2.34,0,0,1,1.38.65l3.49,3.43a2.27,2.27,0,0,1,.63,1.13c0,.12.05.23.08.35v16.2s0,.05,0,.08a2.38,2.38,0,0,1-1.77,2l-.42.09H2.19L2.1,24a2.38,2.38,0,0,1-2-1.82C.05,22,0,21.89,0,21.76ZM.81,12v9.55a1.84,1.84,0,0,0,0,.41,1.64,1.64,0,0,0,1.63,1.24h14.7a1.62,1.62,0,0,0,1.54-1.59V5.83a1.59,1.59,0,0,0-.48-1.16L16.94,3.4,14.77,1.27A1.58,1.58,0,0,0,13.64.81H2.44A1.61,1.61,0,0,0,.81,2.45Z"/><path class="b1f94d3b-6435-4208-a0d2-1a7db0888de4" d="M4.44,16.09H9.08c.1,0,.18-.18.18-.4s-.08-.4-.18-.4H4.44c-.1,0-.18.17-.18.4s.08.4.18.4Z"/><path class="b1f94d3b-6435-4208-a0d2-1a7db0888de4" d="M10.44,16.09h4.64c.1,0,.18-.18.18-.4s-.08-.4-.18-.4H10.44c-.1,0-.18.17-.18.4s.08.4.18.4Z"/><path class="b1f94d3b-6435-4208-a0d2-1a7db0888de4" d="M4.44,18.17H9.08c.1,0,.18-.18.18-.4s-.08-.4-.18-.4H4.44c-.1,0-.18.18-.18.4s.08.4.18.4Z"/><path class="b1f94d3b-6435-4208-a0d2-1a7db0888de4" d="M10.44,18.17h4.64c.1,0,.18-.18.18-.4s-.08-.4-.18-.4H10.44c-.1,0-.18.18-.18.4s.08.4.18.4Z"/><path class="b1f94d3b-6435-4208-a0d2-1a7db0888de4" d="M4.44,20.06H9.08c.1,0,.18-.18.18-.4s-.08-.4-.18-.4H4.44c-.1,0-.18.18-.18.4s.08.4.18.4Z"/><path class="b1f94d3b-6435-4208-a0d2-1a7db0888de4" d="M10.44,20.06h4.64c.1,0,.18-.18.18-.4s-.08-.4-.18-.4H10.44c-.1,0-.18.18-.18.4s.08.4.18.4Z"/><path class="a7c06513-56bb-4696-aff3-288ee7121c35" d="M14.23,5.67H11.3l-1.49,2-1.54-2h-3L8,8.72,5,12H8l1.72-2,1.71,2h3l-3-3.27Z"/></svg>